Coordinates
version=1
nRows=19
nColumns=36
inDegrees=yes

Units are S.I. units (second, meters, Newtons, ...)
If the header above contains a line with 'inDegrees', this indicates whether rotational values are in degrees (yes) or radians (no).

endheader
time	pelvis_tilt	pelvis_list	pelvis_rotation	pelvis_tx	pelvis_ty	pelvis_tz	hip_flexion_r	hip_adduction_r	hip_rotation_r	knee_angle_r	knee_angle_r_beta	ankle_angle_r	subtalar_angle_r	mtp_angle_r	hip_flexion_l	hip_adduction_l	hip_rotation_l	knee_angle_l	knee_angle_l_beta	ankle_angle_l	subtalar_angle_l	mtp_angle_l	lumbar_extension	lumbar_bending	lumbar_rotation	arm_flex_r	arm_add_r	arm_rot_r	elbow_flex_r	pro_sup_r	arm_flex_l	arm_add_l	arm_rot_l	elbow_flex_l	pro_sup_l
      1.72881360	     -2.74254611	      0.05697000	      3.44151819	      0.31557667	      0.94094273	     -0.10287933	     -0.43143733	     -5.29241952	      0.42346746	      0.98180544	      0.01713574	      2.60854237	    -10.27371267	     -7.49999987	      0.75311724	     -2.86918378	      2.21042747	      2.55899300	      0.04466285	     -1.54196487	    -13.46606144	     -7.49999987	      3.81098579	     -0.60320132	      2.92887172	     32.44336394	    -18.67506591	    -15.22654313	     48.58380481	     58.64598877	     44.27715600	    -14.28876171	     -4.80962891	     41.75188302	     45.99094159
      1.74576270	     -2.72809189	      0.02046773	      3.42836658	      0.31537952	      0.94133491	     -0.10278238	     -0.45554856	     -5.27732342	      0.51069381	      0.97492086	      0.01701558	      2.59382803	    -10.22044156	     -7.49999987	      0.73706878	     -2.89853752	      2.15008885	      2.53063503	      0.04416791	     -1.49336915	    -13.50928340	     -7.49999987	      3.88024972	     -0.60216157	      3.19547678	     32.75504148	    -19.06432096	    -14.34734536	     49.90915006	     57.35147109	     45.74438629	    -14.39969138	     -1.69808982	     40.74007010	     41.53882238
      1.76271190	     -2.77304402	      0.00719741	      3.39880714	      0.31558097	      0.94076149	     -0.10301865	     -0.42881034	     -5.27325984	      0.56328576	      0.96343747	      0.01681516	      2.52022592	    -10.22572788	     -7.49999987	      0.76817282	     -2.89330519	      2.12609398	      2.47628712	      0.04321936	     -1.44053370	    -13.65993498	     -7.49999987	      4.05618821	     -0.67087338	      3.21891457	     33.35257973	    -19.35021498	    -13.36289970	     50.39695056	     57.72358216	     46.78127802	    -14.40458746	     -0.23593916	     40.10892707	     43.40009637
      1.77966100	     -2.85898484	     -0.02935660	      3.29753084	      0.31546076	      0.94102795	     -0.10283493	     -0.30259374	     -5.25450879	      0.66109618	      0.95468199	      0.01666234	      2.53342436	    -10.20091129	     -7.49999987	      0.85254248	     -2.90436052	      1.96768271	      2.39040361	      0.04172041	     -1.43996047	    -13.50898180	     -7.49999987	      4.32374739	     -0.67783193	      3.34168864	     33.90326236	    -19.44043378	    -12.81743567	     50.68270331	     57.79174276	     47.79286820	    -14.28973526	      1.84593497	     39.47793432	     40.86401633
      1.79661020	     -2.87342193	     -0.05187215	      3.19486363	      0.31559268	      0.94048921	     -0.10306144	     -0.23760764	     -5.23221323	      0.75761404	      0.94827645	      0.01655055	      2.53722319	    -10.23400459	     -7.49999987	      0.85069669	     -2.88779156	      1.94758706	      2.31072639	      0.04032978	     -1.46879183	    -13.55601873	     -7.49999987	      4.52049728	     -0.72037631	      3.19740878	     34.98961030	    -19.47461354	    -11.45601563	     50.21313064	     58.40986268	     48.32597128	    -14.47415355	      2.60909559	     39.43768783	     42.31888168
      1.81355930	     -2.88881577	     -0.07175872	      3.05752848	      0.31544123	      0.94100333	     -0.10280434	     -0.19962080	     -5.16748824	      0.84455570	      0.97875624	      0.01708252	      2.56939942	    -10.20244995	     -7.49999987	      0.83486925	     -2.89352600	      1.83469829	      2.26627707	      0.03955400	     -1.46844945	    -13.55845732	     -7.49999987	      4.68264998	     -0.77021451	      3.25707664	     35.95164944	    -19.68982208	    -10.83721569	     49.95736976	     59.34210571	     49.10101721	    -14.57885436	      4.57091202	     39.35120633	     40.79978171
      1.83050850	     -2.88291064	     -0.07540035	      2.96149215	      0.31563540	      0.94388167	     -0.10327628	     -0.22311057	     -5.13843635	      0.87124919	      1.00805085	      0.01759381	      2.63433048	    -10.00480696	     -7.49999987	      0.79792821	     -2.89920212	      1.70195772	      2.23781081	      0.03905717	     -1.56911218	    -13.48539772	     -7.49999987	      4.81371765	     -0.84176982	      3.10531825	     37.03355917	    -19.88081660	     -9.95686207	     49.69427000	     59.94355892	     49.74554757	    -14.92168331	      5.99949489	     39.31867824	     42.07445272
      1.84745760	     -2.91502788	     -0.08833687	      2.89662028	      0.31548059	      0.94684452	     -0.10296517	     -0.19324729	     -5.09071917	      0.83613407	      1.02175498	      0.01783299	      2.54543247	     -9.91499157	     -7.49999987	      0.82156723	     -2.90725554	      1.71475994	      2.22274727	      0.03879426	     -1.83957819	    -13.68968201	     -7.49999987	      4.95526640	     -0.88530614	      3.03030215	     37.88713686	    -19.94604274	     -9.15077403	     49.60463891	     60.23361220	     50.00155901	    -14.92557579	      5.42146363	     39.88289597	     46.25760936
      1.86440680	     -2.91764255	     -0.09034572	      2.85028647	      0.31566014	      0.94330430	     -0.10318010	     -0.21460259	     -5.06737604	      0.93355048	      0.97433826	      0.01700541	      2.46036493	    -10.04679272	     -7.49999987	      0.84001767	     -2.89271627	      1.52688449	      2.25429121	      0.03934480	     -1.67930019	    -13.36198416	     -7.49999987	      5.10015777	     -0.89968495	      3.10877646	     38.66853418	    -20.20291632	     -8.89659078	     49.90061190	     61.65325749	     50.56803993	    -15.66512146	      8.35514583	     40.67503468	     42.65143159
      1.88135590	     -2.99243285	     -0.11443046	      2.84499371	      0.31550506	      0.94029843	     -0.10281990	     -0.14649133	     -5.01040821	      0.81121332	      0.98145822	      0.01712968	      2.55251761	     -9.87385825	     -7.49999987	      0.91474521	     -2.90753159	      1.65278483	      2.21494667	      0.03865811	     -1.77796079	    -13.45148761	     -7.49999987	      5.41877945	     -0.96511949	      2.87686771	     39.80026594	    -19.77696468	     -8.73389813	     49.58656728	     61.09249869	     50.78132929	    -15.86933607	      6.85162112	     41.61841349	     48.53142545
      1.89830510	     -2.99424276	     -0.12802845	      2.77927781	      0.31575806	      0.94310668	     -0.10314239	     -0.14749177	     -4.97509325	      0.92037041	      0.98856882	      0.01725378	      2.67590263	     -9.67868310	     -7.49999987	      0.89666791	     -2.92557874	      1.53692323	      2.18920045	      0.03820876	     -1.78271820	    -13.32687567	     -7.49999987	      5.64758253	     -0.94378009	      2.90672625	     41.07168574	    -19.65199815	     -8.11747600	     49.61318457	     63.93903852	     51.26698032	    -16.59025209	      9.80232480	     42.56085710	     42.34816694
      1.91525420	     -2.97548994	     -0.14092441	      2.72534507	      0.31546633	      0.94618464	     -0.10282226	     -0.17085313	     -4.95583351	      1.00899471	      0.97479062	      0.01701331	      2.78182840	     -9.46584921	     -7.49999987	      0.84625245	     -2.94080235	      1.51951013	      2.13520633	      0.03726638	     -1.87216322	    -13.23479586	     -7.49999987	      5.85404354	     -0.93362578	      2.82043096	     42.13962860	    -19.35228625	     -7.65195028	     49.23246955	     63.61283200	     51.54865991	    -16.84715736	      9.84217752	     42.91533472	     46.05859505
      1.93220340	     -2.97694939	     -0.14508313	      2.71215636	      0.31559164	      0.94549579	     -0.10312805	     -0.17780621	     -4.93322042	      1.05180007	      0.96570338	      0.01685470	      2.83516904	     -9.18650967	     -7.49999987	      0.82234072	     -2.93180664	      1.52616093	      2.09985565	      0.03664939	     -1.92707894	    -13.09725176	     -7.49999987	      6.07411104	     -0.99942918	      2.89634756	     42.90947896	    -19.18617045	     -7.67363325	     48.80532834	     65.77941043	     52.31859071	    -16.90409590	     11.77806361	     42.44280565	     43.95388249
      1.94915250	     -2.99662214	     -0.15324224	      2.64477542	      0.31533628	      0.94557698	     -0.10288839	     -0.15020950	     -4.91448384	      1.25516785	      0.95650421	      0.01669415	      2.79361867	     -9.12462681	     -7.49999987	      0.80257011	     -2.92732468	      1.47217593	      2.04891096	      0.03576024	     -1.95834361	    -12.99699365	     -7.49999987	      6.26785835	     -1.04050353	      2.86088252	     43.89562970	    -18.94060689	     -6.65485867	     48.43073281	     65.24936022	     52.73910274	    -16.71270516	     11.78388148	     42.04673757	     46.03759561
      1.96610170	     -2.89290018	     -0.15330039	      2.55177964	      0.31537140	      0.94488679	     -0.10324970	     -0.23896581	     -4.91836672	      1.34901559	      0.96764509	      0.01688859	      2.90013097	     -8.90181237	     -7.49999987	      0.63262060	     -2.90779707	      1.48457690	      1.96372113	      0.03427340	     -1.89722183	    -12.93768535	     -7.49999987	      6.31012999	     -1.07728636	      2.76203588	     45.03061794	    -18.96507980	     -4.85423770	     47.89282401	     64.60188136	     53.28336274	    -16.93362399	     12.39668160	     41.93158650	     49.64517100
      1.98305080	     -2.86249279	     -0.15072675	      2.52811310	      0.31083731	      0.93908433	     -0.10713124	     -0.19703121	     -4.98242247	      1.44957770	      0.96799775	      0.01689475	      2.98116867	     -8.91384055	     -7.49999987	      0.65540283	     -2.84732806	      1.53252913	      1.93190738	      0.03371814	     -1.68644699	    -12.77470283	     -7.49999987	      6.26942780	     -1.01669957	      2.72715971	     46.42776519	    -18.96890883	     -4.12275128	     47.61325097	     64.79252552	     54.58822404	    -16.66829495	     12.88815766	     41.74404055	     49.85098637
      2.00000000	     -3.04644439	     -0.13016587	      2.50348139	      0.31115364	      0.94454745	     -0.10748078	      0.11353006	     -5.11607418	      1.62518931	      0.98283296	      0.01715367	      2.95414332	     -8.83869636	     -7.49999987	      0.92548037	     -2.75996617	      1.70438100	      1.90371330	      0.03322607	     -1.82266940	    -12.92671487	     -7.49999987	      6.64189738	     -1.01302236	      2.64426881	     47.71567883	    -19.15560514	     -1.70937480	     46.50138826	     65.73599141	     55.96946648	    -16.57358791	     14.43906368	     40.24906936	     49.71214262
      2.01694910	     -3.03936172	     -0.06441922	      2.55838576	      0.31083634	      0.94471023	     -0.10714576	      0.16641838	     -5.23678078	      1.62945659	      0.96187095	      0.01678782	      2.87744983	     -8.76427700	     -7.49999987	      0.95613696	     -2.65437173	      1.88236026	      1.82112427	      0.03178461	     -1.84173028	    -12.90265377	     -7.49999987	      6.61699497	     -1.05543693	      2.49264101	     49.07923290	    -19.10486403	     -0.30155542	     46.01474878	     65.41229990	     56.92330890	    -16.54372792	     15.04867403	     40.23637751	     51.38582636
      2.03389830	     -2.93017153	     -0.06423607	      2.59517854	      0.31095288	      0.94420752	     -0.10741969	      0.07081617	     -5.27637547	      1.49745019	      0.95340925	      0.01664013	      2.93152086	     -8.54768505	     -7.49999987	      0.88072622	     -2.60641299	      1.76530495	      1.82789456	      0.03190278	     -1.67232073	    -12.54091915	     -7.49999987	      6.44898488	     -0.97060580	      2.24073463	     50.22026341	    -18.77859294	      0.19802005	     46.06118828	     64.93047937	     57.66381381	    -16.48325706	     14.99069526	     40.20541700	     52.48098380
